<?xml version="1.0" standalone="no"?>
<!DOCTYPE svg PUBLIC "-//W3C//DTD SVG 20010904//EN"
 "http://www.w3.org/TR/2001/REC-SVG-20010904/DTD/svg10.dtd">
<svg version="1.0" xmlns="http://www.w3.org/2000/svg"
 width="399.000000pt" height="399.000000pt" viewBox="0 0 399.000000 399.000000"
 preserveAspectRatio="xMidYMid meet">
<metadata>
Created by potrace 1.14, written by Peter Selinger 2001-2017
</metadata>
<g transform="translate(0.000000,399.000000) scale(0.100000,-0.100000)"
fill="#000000" stroke="none">
<path d="M250 1635 l0 -1365 1390 0 1390 0 0 105 0 105 -1275 0 -1275 0 0
1260 0 1260 -115 0 -115 0 0 -1365z"/>
<path d="M1063 1970 c-77 -18 -132 -74 -154 -154 -18 -65 -7 -213 19 -263 38
-72 111 -113 204 -113 104 0 179 58 209 162 7 25 5 28 -14 28 -12 0 -31 3 -43
6 -18 5 -22 0 -28 -26 -3 -18 -21 -47 -40 -66 -29 -29 -41 -34 -83 -34 -103 0
-147 59 -147 200 0 92 11 126 59 170 22 21 36 25 87 25 55 0 62 -3 89 -33 16
-18 29 -39 29 -47 0 -16 40 -20 72 -7 16 7 16 10 -1 47 -41 92 -142 133 -258
105z"/>
<path d="M1557 1966 c-58 -21 -103 -61 -128 -113 -20 -41 -24 -63 -24 -148 0
-115 18 -161 80 -213 84 -68 224 -71 313 -5 30 22 72 88 72 113 0 5 -20 10
-44 10 -34 0 -46 -4 -50 -18 -22 -67 -126 -102 -200 -67 -43 21 -86 87 -86
133 l0 32 196 0 197 0 -7 58 c-9 85 -51 160 -108 195 -57 35 -151 46 -211 23z
m153 -74 c35 -18 64 -57 75 -104 l7 -28 -151 0 c-171 0 -170 0 -128 75 25 46
75 75 127 75 19 0 51 -8 70 -18z"/>
<path d="M2095 1971 c-74 -18 -116 -62 -122 -128 -8 -91 27 -121 202 -169 123
-34 152 -71 102 -130 -20 -23 -34 -28 -84 -32 -75 -5 -118 15 -141 66 -16 34
-20 37 -54 34 -42 -4 -46 -14 -24 -65 36 -88 168 -131 289 -95 87 26 141 116
115 193 -18 53 -49 72 -179 112 -121 36 -149 53 -149 88 0 35 34 58 93 63 65
5 103 -9 125 -48 28 -49 101 -38 88 13 -19 79 -145 126 -261 98z"/>
<path d="M2500 1710 l0 -260 40 0 40 0 0 260 0 260 -40 0 -40 0 0 -260z"/>
</g>
</svg>
